REM DIRINDEX 1\3,1\2\4,1\2\5,1\2\6
REM DIRNAME folder01,folder02,folder03,folder04,folder05,folder06
TITLE ""
FILE "019.mp3" MP3
  TRACK 01 AUDIO
    TITLE "4:cjc137_0759"
    INDEX 01 00:00:00
  TRACK 02 AUDIO
    TITLE "0:"
    INDEX 01 00:01:22
  TRACK 03 AUDIO
    TITLE "6:cjc137_0760"
    INDEX 01 00:01:32
  TRACK 04 AUDIO
    TITLE "0:"
    INDEX 01 00:02:47
  TRACK 05 AUDIO
    TITLE "5:cjc137_0761"
    INDEX 01 00:02:53
  TRACK 06 AUDIO
    TITLE "0:"
    INDEX 01 00:03:74
  TRACK 07 AUDIO
    TITLE "4:cjc137_0762"
    INDEX 01 00:05:10
  TRACK 08 AUDIO
    TITLE "0:"
    INDEX 01 00:06:02
  TRACK 09 AUDIO
    TITLE "6:cjc137_0763"
    INDEX 01 00:06:14
  TRACK 10 AUDIO
    TITLE "0:"
    INDEX 01 00:07:25
  TRACK 11 AUDIO
    TITLE "5:cjc137_0764"
    INDEX 01 00:07:31
  TRACK 12 AUDIO
    TITLE "0:"
    INDEX 01 00:08:21
  TRACK 13 AUDIO
    TITLE "4:cjc137_0765"
    INDEX 01 00:09:34
  TRACK 14 AUDIO
    TITLE "0:"
    INDEX 01 00:10:31
  TRACK 15 AUDIO
    TITLE "6:cjc137_0766"
    INDEX 01 00:10:39
  TRACK 16 AUDIO
    TITLE "0:"
    INDEX 01 00:11:39
  TRACK 17 AUDIO
    TITLE "5:cjc137_0767"
    INDEX 01 00:11:42
  TRACK 18 AUDIO
    TITLE "0:"
    INDEX 01 00:12:40
  TRACK 19 AUDIO
    TITLE "4:cjc137_0768"
    INDEX 01 00:13:47
  TRACK 20 AUDIO
    TITLE "0:"
    INDEX 01 00:14:45
  TRACK 21 AUDIO
    TITLE "6:cjc137_0769"
    INDEX 01 00:14:53
  TRACK 22 AUDIO
    TITLE "0:"
    INDEX 01 00:15:54
  TRACK 23 AUDIO
    TITLE "5:cjc137_0770"
    INDEX 01 00:15:60
  TRACK 24 AUDIO
    TITLE "0:"
    INDEX 01 00:16:57
  TRACK 25 AUDIO
    TITLE "4:cjc137_0771"
    INDEX 01 00:17:63
  TRACK 26 AUDIO
    TITLE "0:"
    INDEX 01 00:18:56
  TRACK 27 AUDIO
    TITLE "6:cjc137_0772"
    INDEX 01 00:18:64
  TRACK 28 AUDIO
    TITLE "0:"
    INDEX 01 00:19:69
  TRACK 29 AUDIO
    TITLE "5:cjc137_0773"
    INDEX 01 00:20:00
  TRACK 30 AUDIO
    TITLE "0:"
    INDEX 01 00:20:67
  TRACK 31 AUDIO
    TITLE "4:cjc137_0774"
    INDEX 01 00:21:74
  TRACK 32 AUDIO
    TITLE "0:"
    INDEX 01 00:23:04
  TRACK 33 AUDIO
    TITLE "6:cjc137_0775"
    INDEX 01 00:23:10
  TRACK 34 AUDIO
    TITLE "0:"
    INDEX 01 00:24:55
  TRACK 35 AUDIO
    TITLE "5:cjc137_0776"
    INDEX 01 00:24:61
  TRACK 36 AUDIO
    TITLE "0:"
    INDEX 01 00:25:64
  TRACK 37 AUDIO
    TITLE "4:cjc137_0777"
    INDEX 01 00:26:71
  TRACK 38 AUDIO
    TITLE "0:"
    INDEX 01 00:27:73
  TRACK 39 AUDIO
    TITLE "6:cjc137_0778"
    INDEX 01 00:28:08
  TRACK 40 AUDIO
    TITLE "0:"
    INDEX 01 00:29:15
  TRACK 41 AUDIO
    TITLE "5:cjc137_0779"
    INDEX 01 00:29:21
  TRACK 42 AUDIO
    TITLE "0:"
    INDEX 01 00:30:22
  TRACK 43 AUDIO
    TITLE "4:cjc137_0780"
    INDEX 01 00:31:29
  TRACK 44 AUDIO
    TITLE "0:"
    INDEX 01 00:32:31
  TRACK 45 AUDIO
    TITLE "6:cjc137_0781"
    INDEX 01 00:32:37
  TRACK 46 AUDIO
    TITLE "0:"
    INDEX 01 00:33:28
  TRACK 47 AUDIO
    TITLE "5:cjc137_0782"
    INDEX 01 00:33:32
  TRACK 48 AUDIO
    TITLE "0:"
    INDEX 01 00:34:34
  TRACK 49 AUDIO
    TITLE "4:cjc137_0783"
    INDEX 01 00:35:41
  TRACK 50 AUDIO
    TITLE "0:"
    INDEX 01 00:36:54
  TRACK 51 AUDIO
    TITLE "6:cjc137_0784"
    INDEX 01 00:36:60
  TRACK 52 AUDIO
    TITLE "0:"
    INDEX 01 00:38:14
  TRACK 53 AUDIO
    TITLE "5:cjc137_0785"
    INDEX 01 00:38:18
  TRACK 54 AUDIO
    TITLE "0:"
    INDEX 01 00:39:31
  TRACK 55 AUDIO
    TITLE "4:cjc137_0786"
    INDEX 01 00:40:36
  TRACK 56 AUDIO
    TITLE "0:"
    INDEX 01 00:41:30
  TRACK 57 AUDIO
    TITLE "6:cjc137_0787"
    INDEX 01 00:41:40
  TRACK 58 AUDIO
    TITLE "0:"
    INDEX 01 00:42:29
  TRACK 59 AUDIO
    TITLE "5:cjc137_0788"
    INDEX 01 00:42:39
  TRACK 60 AUDIO
    TITLE "0:"
    INDEX 01 00:43:33
  TRACK 61 AUDIO
    TITLE "4:cjc137_0789"
    INDEX 01 00:44:42
  TRACK 62 AUDIO
    TITLE "0:"
    INDEX 01 00:45:43
  TRACK 63 AUDIO
    TITLE "6:cjc137_0790"
    INDEX 01 00:45:53
  TRACK 64 AUDIO
    TITLE "0:"
    INDEX 01 00:46:39
  TRACK 65 AUDIO
    TITLE "5:cjc137_0791"
    INDEX 01 00:46:45
  TRACK 66 AUDIO
    TITLE "0:"
    INDEX 01 00:47:46
  TRACK 67 AUDIO
    TITLE "4:cjc137_0792"
    INDEX 01 00:48:55
  TRACK 68 AUDIO
    TITLE "0:"
    INDEX 01 00:50:07
  TRACK 69 AUDIO
    TITLE "6:cjc137_0793"
    INDEX 01 00:50:17
  TRACK 70 AUDIO
    TITLE "0:"
    INDEX 01 00:51:34
  TRACK 71 AUDIO
    TITLE "5:cjc137_0794"
    INDEX 01 00:51:42
  TRACK 72 AUDIO
    TITLE "0:"
    INDEX 01 00:52:67
  TRACK 73 AUDIO
    TITLE "4:cjc137_0795"
    INDEX 01 00:54:03
  TRACK 74 AUDIO
    TITLE "0:"
    INDEX 01 00:55:04
  TRACK 75 AUDIO
    TITLE "6:cjc137_0796"
    INDEX 01 00:55:08
  TRACK 76 AUDIO
    TITLE "0:"
    INDEX 01 00:55:71
  TRACK 77 AUDIO
    TITLE "5:cjc137_0797"
    INDEX 01 00:56:02
  TRACK 78 AUDIO
    TITLE "0:"
    INDEX 01 00:57:03
  TRACK 79 AUDIO
    TITLE "4:cjc137_0798"
    INDEX 01 00:58:09
  TRACK 80 AUDIO
    TITLE "0:"
    INDEX 01 00:59:14
  TRACK 81 AUDIO
    TITLE "6:cjc137_0799"
    INDEX 01 00:59:22
  TRACK 82 AUDIO
    TITLE "0:"
    INDEX 01 01:00:06
  TRACK 83 AUDIO
    TITLE "5:cjc137_0800"
    INDEX 01 01:00:12
  TRACK 84 AUDIO
    TITLE "0:"
    INDEX 01 01:01:17
